<svg xmlns="http://www.w3.org/2000/svg" viewBox="0 0 1440 900" preserveAspectRatio="xMidYMid slice">
  <defs>
    <linearGradient id="base" x1="0%" y1="0%" x2="100%" y2="100%">
      <stop offset="0%" stop-color="#1a2433"/>
      <stop offset="45%" stop-color="#243447"/>
      <stop offset="100%" stop-color="#2c384a"/>
    </linearGradient>
    <radialGradient id="glowA" cx="22%" cy="35%" r="55%">
      <stop offset="0%" stop-color="#7a93ac" stop-opacity="0.45"/>
      <stop offset="55%" stop-color="#7a93ac" stop-opacity="0.12"/>
      <stop offset="100%" stop-color="#7a93ac" stop-opacity="0"/>
    </radialGradient>
    <radialGradient id="glowB" cx="85%" cy="70%" r="45%">
      <stop offset="0%" stop-color="#5e7a99" stop-opacity="0.35"/>
      <stop offset="100%" stop-color="#5e7a99" stop-opacity="0"/>
    </radialGradient>
    <linearGradient id="band" x1="0%" y1="0%" x2="100%" y2="0%">
      <stop offset="0%" stop-color="#7a93ac" stop-opacity="0"/>
      <stop offset="40%" stop-color="#7a93ac" stop-opacity="0.14"/>
      <stop offset="100%" stop-color="#7a93ac" stop-opacity="0"/>
    </linearGradient>
  </defs>
  <rect width="1440" height="900" fill="url(#base)"/>
  <rect width="1440" height="900" fill="url(#glowA)"/>
  <rect width="1440" height="900" fill="url(#glowB)"/>
  <!-- ÔŚâjB -->
  <path fill="url(#band)" d="M0,520 C240,460 480,620 720,540 S1200,420 1440,500 L1440,900 L0,900 Z" opacity="0.9"/>
  <path fill="#7a93ac" fill-opacity="0.06" d="M0,580 Q360,500 720,560 T1440,520 L1440,900 L0,900 Z"/>
  <!-- ˝aQ<ż -->
  <g stroke="#e2e8f0" stroke-opacity="0.06" stroke-width="1" fill="none">
    <line x1="0" y1="180" x2="1440" y2="180"/>
    <line x1="0" y1="360" x2="1440" y2="360"/>
    <line x1="0" y1="540" x2="1440" y2="540"/>
    <line x1="320" y1="0" x2="320" y2="900"/>
    <line x1="720" y1="0" x2="720" y2="900"/>
    <line x1="1120" y1="0" x2="1120" y2="900"/>
  </g>
  <!-- ĹpŻ -->
  <circle cx="1080" cy="200" r="120" stroke="#7a93ac" stroke-opacity="0.12" stroke-width="2" fill="none"/>
  <circle cx="1080" cy="200" r="80" stroke="#7a93ac" stroke-opacity="0.08" stroke-width="1.5" fill="none"/>
</svg>
